<svg viewBox="0 0 48 48" xmlns="http://www.w3.org/2000/svg" xml:space="preserve">
  <path d="M40.193 19.549c1.643-2.787 4.931-2.787 6.574-1.393 1.644 1.393 1.644 4.181 0 6.969-1.15 2.091-4.108 4.182-6.574 5.576-2.465-1.394-5.424-3.485-6.574-5.576-1.644-2.788-1.644-5.576 0-6.969 1.643-1.394 4.93-1.394 6.574 1.393Z" style="fill:#dc0000" />
  <path d="M40.193 19.549c1.643-2.787 4.931-2.787 6.574-1.393 1.644 1.393 1.644 4.181 0 6.969-1.15 2.091-4.108 4.182-6.574 5.576-2.465-1.394-5.424-3.485-6.574-5.576-1.644-2.788-1.644-5.576 0-6.969 1.643-1.394 4.93-1.394 6.574 1.393Zm-.341.202c-1.496-2.537-4.481-2.562-5.977-1.293-1.525 1.293-1.44 3.879.085 6.466l.006.01c1.092 1.984 3.864 3.954 6.227 5.311 2.363-1.357 5.136-3.327 6.227-5.311l.006-.01c1.525-2.587 1.61-5.173.085-6.466-1.495-1.269-4.481-1.244-5.977 1.293a.397.397 0 0 1-.682 0Z" />
  <circle cx="22.635" cy="24.002" r="6.758" style="fill:#f4c51c" />
  <path d="M22.635 17.244a6.761 6.761 0 0 1 6.758 6.758 6.761 6.761 0 0 1-6.758 6.758 6.761 6.761 0 0 1-6.758-6.758 6.761 6.761 0 0 1 6.758-6.758Zm0 .363a6.398 6.398 0 0 0-6.395 6.395 6.398 6.398 0 0 0 6.395 6.395 6.397 6.397 0 0 0 6.395-6.395 6.397 6.397 0 0 0-6.395-6.395Z" />
  <path style="fill:#0c46f3" d="M0 17.88h12.244v12.244H0z" />
  <path d="M12.244 17.88v12.244H0V17.88h12.244Zm-.288.289H.289v11.666h11.667V18.169Z" />
</svg>